<mxfile host="app.diagrams.net" modified="2024-04-14T10:24:43.491Z" agent="Mozilla/5.0 (Windows NT 10.0; Win64; x64) AppleWebKit/537.36 (KHTML, like Gecko) Chrome/123.0.0.0 Safari/537.36 Edg/123.0.0.0" etag="6CqOtPxqY84UC9o4gUke" version="24.2.1" type="github">
  <diagram name="Page-1" id="L_krOU00MxawSAh70pyl">
    <mxGraphModel dx="1002" dy="569" grid="1" gridSize="10" guides="1" tooltips="1" connect="1" arrows="1" fold="1" page="1" pageScale="1" pageWidth="850" pageHeight="1100" math="0" shadow="0">
      <root>
        <mxCell id="0" />
        <mxCell id="1" parent="0" />
        <mxCell id="FzPyVAdeT0ASTcPWLuVl-2" value="" style="rounded=1;whiteSpace=wrap;html=1;strokeColor=default;" vertex="1" parent="1">
          <mxGeometry x="80" y="230" width="220" height="130" as="geometry" />
        </mxCell>
        <mxCell id="FzPyVAdeT0ASTcPWLuVl-3" value="Alice" style="sketch=0;outlineConnect=0;fontColor=#232F3E;gradientColor=none;strokeColor=#232F3E;fillColor=#ffffff;dashed=0;verticalLabelPosition=bottom;verticalAlign=top;align=center;html=1;fontSize=12;fontStyle=0;aspect=fixed;shape=mxgraph.aws4.resourceIcon;resIcon=mxgraph.aws4.user;" vertex="1" parent="1">
          <mxGeometry x="100" y="270" width="60" height="60" as="geometry" />
        </mxCell>
        <mxCell id="FzPyVAdeT0ASTcPWLuVl-6" value="Bob" style="sketch=0;outlineConnect=0;fontColor=#232F3E;gradientColor=none;strokeColor=#232F3E;fillColor=#ffffff;dashed=0;verticalLabelPosition=bottom;verticalAlign=top;align=center;html=1;fontSize=12;fontStyle=0;aspect=fixed;shape=mxgraph.aws4.resourceIcon;resIcon=mxgraph.aws4.user;" vertex="1" parent="1">
          <mxGeometry x="160" y="269" width="60" height="60" as="geometry" />
        </mxCell>
        <mxCell id="FzPyVAdeT0ASTcPWLuVl-7" value="Charles" style="sketch=0;outlineConnect=0;fontColor=#232F3E;gradientColor=none;strokeColor=#232F3E;fillColor=#ffffff;dashed=0;verticalLabelPosition=bottom;verticalAlign=top;align=center;html=1;fontSize=12;fontStyle=0;aspect=fixed;shape=mxgraph.aws4.resourceIcon;resIcon=mxgraph.aws4.user;" vertex="1" parent="1">
          <mxGeometry x="220" y="269" width="60" height="60" as="geometry" />
        </mxCell>
        <mxCell id="FzPyVAdeT0ASTcPWLuVl-8" value="IAM Group:&amp;nbsp; Developer" style="text;html=1;align=center;verticalAlign=middle;whiteSpace=wrap;rounded=1;dashed=1;strokeWidth=1;strokeColor=#d79b00;fillColor=#ffe6cc;" vertex="1" parent="1">
          <mxGeometry x="115" y="210" width="150" height="30" as="geometry" />
        </mxCell>
        <mxCell id="FzPyVAdeT0ASTcPWLuVl-9" value="" style="outlineConnect=0;dashed=0;verticalLabelPosition=bottom;verticalAlign=top;align=center;html=1;shape=mxgraph.aws3.policy;fillColor=#1ba1e2;strokeColor=#006EAF;fontColor=#ffffff;" vertex="1" parent="1">
          <mxGeometry x="260" y="100" width="55.5" height="90" as="geometry" />
        </mxCell>
        <mxCell id="FzPyVAdeT0ASTcPWLuVl-10" value="IAM Policy (Accesses) : &lt;b&gt;Developer&lt;/b&gt;" style="text;html=1;align=center;verticalAlign=middle;whiteSpace=wrap;rounded=0;" vertex="1" parent="1">
          <mxGeometry x="180" y="70" width="202.25" height="30" as="geometry" />
        </mxCell>
        <mxCell id="FzPyVAdeT0ASTcPWLuVl-11" value="" style="endArrow=classic;html=1;rounded=0;entryX=0.452;entryY=-0.053;entryDx=0;entryDy=0;flowAnimation=1;curved=1;entryPerimeter=0;fillColor=#0050ef;strokeColor=#001DBC;" edge="1" parent="1" source="FzPyVAdeT0ASTcPWLuVl-9" target="FzPyVAdeT0ASTcPWLuVl-8">
          <mxGeometry width="50" height="50" relative="1" as="geometry">
            <mxPoint x="430" y="490" as="sourcePoint" />
            <mxPoint x="480" y="440" as="targetPoint" />
            <Array as="points">
              <mxPoint x="180" y="140" />
            </Array>
          </mxGeometry>
        </mxCell>
        <mxCell id="FzPyVAdeT0ASTcPWLuVl-13" value="" style="endArrow=classic;html=1;rounded=0;flowAnimation=1;fillColor=#0050ef;strokeColor=#001DBC;" edge="1" parent="1">
          <mxGeometry width="50" height="50" relative="1" as="geometry">
            <mxPoint x="175" y="240" as="sourcePoint" />
            <mxPoint x="140" y="270" as="targetPoint" />
          </mxGeometry>
        </mxCell>
        <mxCell id="FzPyVAdeT0ASTcPWLuVl-14" value="" style="endArrow=classic;html=1;rounded=0;flowAnimation=1;fillColor=#0050ef;strokeColor=#001DBC;" edge="1" parent="1">
          <mxGeometry width="50" height="50" relative="1" as="geometry">
            <mxPoint x="189.5" y="240" as="sourcePoint" />
            <mxPoint x="189.5" y="270" as="targetPoint" />
          </mxGeometry>
        </mxCell>
        <mxCell id="FzPyVAdeT0ASTcPWLuVl-15" value="" style="endArrow=classic;html=1;rounded=0;flowAnimation=1;fillColor=#6a00ff;strokeColor=#3700CC;" edge="1" parent="1">
          <mxGeometry width="50" height="50" relative="1" as="geometry">
            <mxPoint x="210" y="239" as="sourcePoint" />
            <mxPoint x="240" y="269" as="targetPoint" />
          </mxGeometry>
        </mxCell>
        <mxCell id="FzPyVAdeT0ASTcPWLuVl-16" value="" style="rounded=1;whiteSpace=wrap;html=1;" vertex="1" parent="1">
          <mxGeometry x="410" y="230" width="220" height="130" as="geometry" />
        </mxCell>
        <mxCell id="FzPyVAdeT0ASTcPWLuVl-17" value="David" style="sketch=0;outlineConnect=0;fontColor=#232F3E;gradientColor=none;strokeColor=#232F3E;fillColor=#ffffff;dashed=0;verticalLabelPosition=bottom;verticalAlign=top;align=center;html=1;fontSize=12;fontStyle=0;aspect=fixed;shape=mxgraph.aws4.resourceIcon;resIcon=mxgraph.aws4.user;" vertex="1" parent="1">
          <mxGeometry x="430" y="270" width="60" height="60" as="geometry" />
        </mxCell>
        <mxCell id="FzPyVAdeT0ASTcPWLuVl-18" value="Edard" style="sketch=0;outlineConnect=0;fontColor=#232F3E;gradientColor=none;strokeColor=#232F3E;fillColor=#ffffff;dashed=0;verticalLabelPosition=bottom;verticalAlign=top;align=center;html=1;fontSize=12;fontStyle=0;aspect=fixed;shape=mxgraph.aws4.resourceIcon;resIcon=mxgraph.aws4.user;" vertex="1" parent="1">
          <mxGeometry x="490" y="269" width="60" height="60" as="geometry" />
        </mxCell>
        <mxCell id="FzPyVAdeT0ASTcPWLuVl-19" value="Fred" style="sketch=0;outlineConnect=0;fontColor=#232F3E;gradientColor=none;strokeColor=#232F3E;fillColor=#ffffff;dashed=0;verticalLabelPosition=bottom;verticalAlign=top;align=center;html=1;fontSize=12;fontStyle=0;aspect=fixed;shape=mxgraph.aws4.resourceIcon;resIcon=mxgraph.aws4.user;" vertex="1" parent="1">
          <mxGeometry x="550" y="269" width="60" height="60" as="geometry" />
        </mxCell>
        <mxCell id="FzPyVAdeT0ASTcPWLuVl-20" value="IAM Group:&amp;nbsp; Developer" style="text;html=1;align=center;verticalAlign=middle;whiteSpace=wrap;rounded=1;dashed=1;strokeWidth=1;strokeColor=#d79b00;fillColor=#ffe6cc;" vertex="1" parent="1">
          <mxGeometry x="445" y="210" width="150" height="30" as="geometry" />
        </mxCell>
        <mxCell id="FzPyVAdeT0ASTcPWLuVl-21" value="" style="outlineConnect=0;dashed=0;verticalLabelPosition=bottom;verticalAlign=top;align=center;html=1;shape=mxgraph.aws3.policy;fillColor=#e51400;strokeColor=#B20000;fontColor=#ffffff;" vertex="1" parent="1">
          <mxGeometry x="590" y="100" width="55.5" height="90" as="geometry" />
        </mxCell>
        <mxCell id="FzPyVAdeT0ASTcPWLuVl-22" value="IAM Policy (Accesses) : &lt;b&gt;SRE&lt;/b&gt;" style="text;html=1;align=center;verticalAlign=middle;whiteSpace=wrap;rounded=0;" vertex="1" parent="1">
          <mxGeometry x="510" y="70" width="202.25" height="30" as="geometry" />
        </mxCell>
        <mxCell id="FzPyVAdeT0ASTcPWLuVl-23" value="" style="endArrow=classic;html=1;rounded=0;entryX=0.452;entryY=-0.053;entryDx=0;entryDy=0;flowAnimation=1;curved=1;entryPerimeter=0;fillColor=#e51400;strokeColor=#B20000;" edge="1" parent="1" source="FzPyVAdeT0ASTcPWLuVl-21" target="FzPyVAdeT0ASTcPWLuVl-20">
          <mxGeometry width="50" height="50" relative="1" as="geometry">
            <mxPoint x="760" y="490" as="sourcePoint" />
            <mxPoint x="810" y="440" as="targetPoint" />
            <Array as="points">
              <mxPoint x="510" y="140" />
            </Array>
          </mxGeometry>
        </mxCell>
        <mxCell id="FzPyVAdeT0ASTcPWLuVl-24" value="" style="endArrow=classic;html=1;rounded=0;flowAnimation=1;fillColor=#e51400;strokeColor=#B20000;" edge="1" parent="1">
          <mxGeometry width="50" height="50" relative="1" as="geometry">
            <mxPoint x="505" y="240" as="sourcePoint" />
            <mxPoint x="470" y="270" as="targetPoint" />
          </mxGeometry>
        </mxCell>
        <mxCell id="FzPyVAdeT0ASTcPWLuVl-25" value="" style="endArrow=classic;html=1;rounded=0;flowAnimation=1;fillColor=#e51400;strokeColor=#B20000;" edge="1" parent="1">
          <mxGeometry width="50" height="50" relative="1" as="geometry">
            <mxPoint x="519.5" y="240" as="sourcePoint" />
            <mxPoint x="519.5" y="270" as="targetPoint" />
          </mxGeometry>
        </mxCell>
        <mxCell id="FzPyVAdeT0ASTcPWLuVl-26" value="" style="endArrow=classic;html=1;rounded=0;flowAnimation=1;fillColor=#e51400;strokeColor=#B20000;" edge="1" parent="1">
          <mxGeometry width="50" height="50" relative="1" as="geometry">
            <mxPoint x="540" y="239" as="sourcePoint" />
            <mxPoint x="570" y="269" as="targetPoint" />
          </mxGeometry>
        </mxCell>
      </root>
    </mxGraphModel>
  </diagram>
</mxfile>
